<svg xmlns="http://www.w3.org/2000/svg" width="511.999" height="396.713" viewBox="0 0 511.999 396.713">
  <g id="arrival" transform="translate(0 -57.643)">
    <g id="Group_55" data-name="Group 55">
      <g id="Group_54" data-name="Group 54">
        <rect id="Rectangle_57" data-name="Rectangle 57" width="462.327" height="15.208" transform="translate(42.071 439.148)" fill="#de7f7f"/>
      </g>
    </g>
    <g id="Group_57" data-name="Group 57">
      <g id="Group_56" data-name="Group 56">
        <rect id="Rectangle_58" data-name="Rectangle 58" width="15.208" height="15.208" transform="translate(8.614 439.148)" fill="#de7f7f"/>
      </g>
    </g>
    <g id="Group_59" data-name="Group 59">
      <g id="Group_58" data-name="Group 58">
        <rect id="Rectangle_59" data-name="Rectangle 59" width="15.208" height="15.208" transform="matrix(0.215, -0.977, 0.977, 0.215, 197.496, 249.908)" fill="#de7f7f"/>
      </g>
    </g>
    <g id="Group_61" data-name="Group 61">
      <g id="Group_60" data-name="Group 60">
        <rect id="Rectangle_60" data-name="Rectangle 60" width="15.208" height="15.208" transform="matrix(0.215, -0.977, 0.977, 0.215, 227.203, 256.452)" fill="#de7f7f"/>
      </g>
    </g>
    <g id="Group_63" data-name="Group 63">
      <g id="Group_62" data-name="Group 62">
        <rect id="Rectangle_61" data-name="Rectangle 61" width="15.208" height="15.208" transform="matrix(0.215, -0.977, 0.977, 0.215, 78.667, 223.756)" fill="#de7f7f"/>
      </g>
    </g>
    <g id="Group_65" data-name="Group 65">
      <g id="Group_64" data-name="Group 64">
        <rect id="Rectangle_62" data-name="Rectangle 62" width="15.208" height="15.208" transform="matrix(0.215, -0.977, 0.977, 0.215, 108.375, 230.291)" fill="#de7f7f"/>
      </g>
    </g>
    <g id="Group_67" data-name="Group 67">
      <g id="Group_66" data-name="Group 66">
        <rect id="Rectangle_63" data-name="Rectangle 63" width="15.208" height="15.208" transform="matrix(0.215, -0.977, 0.977, 0.215, 138.089, 236.838)" fill="#de7f7f"/>
      </g>
    </g>
    <g id="Group_69" data-name="Group 69">
      <g id="Group_68" data-name="Group 68">
        <rect id="Rectangle_64" data-name="Rectangle 64" width="15.208" height="15.208" transform="matrix(0.215, -0.977, 0.977, 0.215, 167.797, 243.373)" fill="#de7f7f"/>
      </g>
    </g>
    <g id="Group_71" data-name="Group 71">
      <g id="Group_70" data-name="Group 70">
        <rect id="Rectangle_65" data-name="Rectangle 65" width="15.208" height="15.208" transform="matrix(0.215, -0.977, 0.977, 0.215, 256.909, 262.997)" fill="#de7f7f"/>
      </g>
    </g>
    <g id="Group_73" data-name="Group 73">
      <g id="Group_72" data-name="Group 72">
        <rect id="Rectangle_66" data-name="Rectangle 66" width="15.208" height="15.208" transform="matrix(0.215, -0.977, 0.977, 0.215, 375.729, 289.147)" fill="#de7f7f"/>
      </g>
    </g>
    <g id="Group_75" data-name="Group 75">
      <g id="Group_74" data-name="Group 74">
        <rect id="Rectangle_67" data-name="Rectangle 67" width="15.208" height="15.208" transform="matrix(0.215, -0.977, 0.977, 0.215, 405.435, 295.68)" fill="#de7f7f"/>
      </g>
    </g>
    <g id="Group_77" data-name="Group 77">
      <g id="Group_76" data-name="Group 76">
        <rect id="Rectangle_68" data-name="Rectangle 68" width="15.208" height="15.208" transform="matrix(0.215, -0.977, 0.977, 0.215, 346.02, 282.611)" fill="#de7f7f"/>
      </g>
    </g>
    <g id="Group_79" data-name="Group 79">
      <g id="Group_78" data-name="Group 78">
        <rect id="Rectangle_69" data-name="Rectangle 69" width="15.208" height="15.208" transform="matrix(0.215, -0.977, 0.977, 0.215, 286.607, 269.533)" fill="#de7f7f"/>
      </g>
    </g>
    <g id="Group_81" data-name="Group 81">
      <g id="Group_80" data-name="Group 80">
        <rect id="Rectangle_70" data-name="Rectangle 70" width="15.208" height="15.207" transform="matrix(0.215, -0.977, 0.977, 0.215, 316.316, 276.067)" fill="#de7f7f"/>
      </g>
    </g>
    <g id="Group_83" data-name="Group 83">
      <g id="Group_82" data-name="Group 82">
        <path id="Path_57" data-name="Path 57" d="M511.843,342.748a103.046,103.046,0,0,0-77.908-87.813L289.657,223.271,191.2,68.3,140.713,57.643,171.9,193.458,71.2,171.7,59.012,102.08,27.09,94.3,1.519,199.207a53.308,53.308,0,0,0,39.193,64.339L485.038,366.528a21.8,21.8,0,0,0,26.8-23.78Zm-17.269,7.532a6.554,6.554,0,0,1-6.018,1.453L44.231,248.751A38.064,38.064,0,0,1,16.3,202.808l21.969-90.131,7.481,1.823,12.24,69.907,134.089,28.968L160.862,77.439,181.8,81.858l98.418,154.909,150.2,32.962a88.25,88.25,0,0,1,66.328,74.833A6.509,6.509,0,0,1,494.574,350.28Z" fill="#de7f7f"/>
      </g>
    </g>
  </g>
</svg>
