<svg id="card" xmlns="http://www.w3.org/2000/svg" width="512" height="343.699" viewBox="0 0 512 343.699">
  <path id="Path_58" data-name="Path 58" d="M467.746,0H44.25A44.3,44.3,0,0,0,0,44.254V299.445A44.3,44.3,0,0,0,44.25,343.7h423.5A44.3,44.3,0,0,0,512,299.445V44.254A44.3,44.3,0,0,0,467.746,0Zm29.047,299.445a29.081,29.081,0,0,1-29.047,29.047H44.25a29.08,29.08,0,0,1-29.043-29.047V44.254A29.08,29.08,0,0,1,44.25,15.207h423.5a29.081,29.081,0,0,1,29.047,29.047Zm0,0" fill="#de7f7f"/>
  <path id="Path_59" data-name="Path 59" d="M227.613,60.832H51.2A7.6,7.6,0,0,0,43.6,68.438V86.684a7.605,7.605,0,0,0,15.211,0V76.039h161.2V261.578H58.809V117.1a7.605,7.605,0,0,0-15.211,0V269.18a7.607,7.607,0,0,0,7.605,7.605h176.41a7.607,7.607,0,0,0,7.605-7.605V68.438A7.6,7.6,0,0,0,227.613,60.832Zm0,0" fill="#de7f7f"/>
  <path id="Path_60" data-name="Path 60" d="M462.832,78.465H272.227a7.6,7.6,0,1,0,0,15.207H462.832a7.6,7.6,0,0,0,0-15.207Zm0,0" fill="#de7f7f"/>
  <path id="Path_61" data-name="Path 61" d="M462.832,133.625H420.25a7.6,7.6,0,0,0,0,15.207h42.582a7.6,7.6,0,0,0,0-15.207Zm0,0" fill="#de7f7f"/>
  <path id="Path_62" data-name="Path 62" d="M272.227,148.832H389.832a7.6,7.6,0,1,0,0-15.207H272.227a7.6,7.6,0,1,0,0,15.207Zm0,0" fill="#de7f7f"/>
  <path id="Path_63" data-name="Path 63" d="M462.832,188.785H272.227a7.6,7.6,0,1,0,0,15.207H462.832a7.6,7.6,0,0,0,0-15.207Zm0,0" fill="#de7f7f"/>
  <path id="Path_64" data-name="Path 64" d="M375.641,243.945H272.227a7.6,7.6,0,1,0,0,15.207H375.641a7.6,7.6,0,0,0,0-15.207Zm0,0" fill="#de7f7f"/>
  <path id="Path_65" data-name="Path 65" d="M86.18,244.848a7.605,7.605,0,0,0,15.211,0,38.02,38.02,0,0,1,76.039,0,7.6,7.6,0,0,0,15.207,0,53.242,53.242,0,0,0-25.844-45.625,53.23,53.23,0,1,0-54.766,0A53.246,53.246,0,0,0,86.18,244.848Zm15.211-91.25a38.02,38.02,0,1,1,38.02,38.02A38.062,38.062,0,0,1,101.391,153.6Zm0,0" fill="#de7f7f"/>
</svg>
