<svg xmlns="http://www.w3.org/2000/svg" width="454.096" height="512" viewBox="0 0 454.096 512">
  <g id="doctor" transform="translate(-28.952)">
    <g id="Group_84" data-name="Group 84">
      <path id="Path_74" data-name="Path 74" d="M482.726,485.783l-22.65-132.6a37.744,37.744,0,0,0-26.453-29.95L372.531,304.8a68.14,68.14,0,0,0-47.282-59.174c1.934-2.146,3.727-4.285,5.372-6.377,14.528-18.477,22.306-38.833,24.286-52.724h4.713a22.256,22.256,0,0,0,22.231-22.231v-11.4a22.384,22.384,0,0,0-11.523-19.441v-27.4a7.5,7.5,0,1,0-14.995,0v30.764a46.215,46.215,0,0,0-9.968,2.884,7.531,7.531,0,0,0-1.056.472c-.8.367-1.611.754-2.414,1.19V80.938a30.307,30.307,0,0,0-30.273-30.273h-20.7A31.1,31.1,0,0,0,271.29,57.67l-2.031,1.66a20.944,20.944,0,0,1-26.515,0l-2.03-1.66a31.111,31.111,0,0,0-19.637-7.005h-20.7a30.307,30.307,0,0,0-30.273,30.273V141.36c-.8-.436-1.609-.823-2.414-1.19a7.519,7.519,0,0,0-1.055-.472,46.231,46.231,0,0,0-9.968-2.884V59.025A44.08,44.08,0,0,1,200.7,15H311.3a44.08,44.08,0,0,1,44.03,44.03V70.811a7.5,7.5,0,1,0,14.995,0V59.025A59.093,59.093,0,0,0,311.3,0H200.7a59.092,59.092,0,0,0-59.025,59.025v74.43A22.383,22.383,0,0,0,130.152,152.9v11.4a22.256,22.256,0,0,0,22.231,22.231H157.1c1.979,13.891,9.758,34.247,24.286,52.724,1.643,2.09,3.435,4.227,5.367,6.371A68.387,68.387,0,0,0,139.472,304.8L78.378,323.23a37.743,37.743,0,0,0-26.453,29.95l-9.2,53.849a7.5,7.5,0,0,0,14.781,2.524l9.2-53.849a22.83,22.83,0,0,1,16-18.118l56.5-17.049v14.831A37.512,37.512,0,0,0,110.7,358.976a38.025,38.025,0,0,0-2.226,10.182l-5.461,70.1a19.057,19.057,0,0,0,19,20.539h9.348a7.5,7.5,0,1,0,0-14.995h-9.348a4.061,4.061,0,0,1-4.049-4.377l5.461-70.1a23.021,23.021,0,0,1,1.348-6.167A22.673,22.673,0,0,1,146,349.708l1.235-.009h.172a22.465,22.465,0,0,1,20.935,13.427,23,23,0,0,1,1.755,7.2l5.463,70.1a4.061,4.061,0,0,1-4.05,4.376h-9.348a7.5,7.5,0,1,0,0,14.995h9.348a19.058,19.058,0,0,0,19-20.538l-5.463-70.1a37.974,37.974,0,0,0-2.9-11.884,37.118,37.118,0,0,0-27.938-21.955V316.013l25.774-7.777c2.345,4.939,6.992,15.612,16.2,38.619,9.277,23.214,20.808,52.969,31.867,81.895a7.621,7.621,0,0,0,.272.712c7.38,19.311,14.539,38.225,20.662,54.541a7.5,7.5,0,0,0,14.04,0c6.122-16.316,13.281-35.23,20.662-54.541a7.459,7.459,0,0,0,.272-.712C295,399.841,306.53,370.1,315.8,346.9c9.217-23.037,13.868-33.719,16.214-38.662l25.774,7.777V360.3a38.789,38.789,0,1,0,14.995.032V320.538l56.506,17.049a22.832,22.832,0,0,1,16,18.118l22.65,132.6a7.444,7.444,0,0,1-7.338,8.7H51.393a7.444,7.444,0,0,1-7.338-8.7l7.475-43.762a7.5,7.5,0,0,0-14.781-2.524l-7.475,43.762A22.437,22.437,0,0,0,51.393,512H460.607a22.438,22.438,0,0,0,22.119-26.217ZM355.421,152.089a32.177,32.177,0,0,1,7.238-.977,7.664,7.664,0,0,0,3.664-.87,7.1,7.1,0,0,1,.531,2.654v11.4a7.244,7.244,0,0,1-7.236,7.236h-4.2V152.089ZM156.579,171.528h-4.2a7.244,7.244,0,0,1-7.236-7.236V152.9a7.114,7.114,0,0,1,.531-2.653,7.646,7.646,0,0,0,3.664.869,33.426,33.426,0,0,1,7.238.981v19.435Zm15,8.407v-19.7A10.52,10.52,0,0,0,185.1,150.152V80.938A15.3,15.3,0,0,1,200.38,65.66h20.7a16.073,16.073,0,0,1,10.146,3.619l2.03,1.66a35.944,35.944,0,0,0,45.5,0l2.03-1.66a16.071,16.071,0,0,1,10.146-3.619h20.7A15.3,15.3,0,0,1,326.9,80.938v69.215a10.521,10.521,0,0,0,13.528,10.091v19.691c0,10.947-7.568,32.205-21.594,50.043a98.85,98.85,0,0,1-17.971,17.8,7.512,7.512,0,0,0-.669.505,73.086,73.086,0,0,1-88.385,0,7.606,7.606,0,0,0-.667-.5,98.926,98.926,0,0,1-17.972-17.806C179.143,212.141,171.574,190.882,171.574,179.935ZM305.12,301.07,256,337.784,206.88,301.07a35.557,35.557,0,0,0,7.6-21.23V267.754a88.05,88.05,0,0,0,83.04,0V279.84A35.557,35.557,0,0,0,305.12,301.07ZM194.367,292.7a20.5,20.5,0,0,0-12.642-.636c-.184.043-.364.092-.539.144l-25.9,7.816a53.265,53.265,0,0,1,44.2-42.009V279.84A19.827,19.827,0,0,1,194.367,292.7Zm20.349,60.188c-.014-.035-.028-.07-.041-.1q-.57-1.441-1.127-2.846-.1-.255-.2-.507c-.364-.917-.725-1.827-1.081-2.722-.025-.063-.05-.125-.075-.189q-1.666-4.189-3.212-8.039c-.075-.186-.15-.375-.225-.56q-.444-1.1-.876-2.177l-.316-.783c-.28-.694-.558-1.384-.832-2.059-.082-.2-.162-.4-.243-.6q-.745-1.839-1.457-3.586l-.386-.947-.549-1.341c-.2-.48-.392-.956-.584-1.424-.072-.175-.147-.36-.219-.534l-.168-.408q-1.3-3.156-2.47-5.952l-.019-.045c-.416-.993-.823-1.963-1.214-2.887l-.6-1.412,42.245,31.574-17.652,7.5-.094.04-7.37,3.131C215.533,354.955,215.124,353.919,214.716,352.889Zm17.89,45.908q-2.222-5.764-4.468-11.569-3.507-9.059-6.708-17.251l2.8-1.189,11.432,13.289Zm23.539,60.938a7.465,7.465,0,0,0-.767-1.259c-3.388-8.955-7.688-20.286-12.447-32.753l7-38.325h12.138l7,38.325C264.082,438.784,259.6,450.594,256.145,459.735Zm8.736-87.331H247.119l-8.4-9.77L256,355.291l17.286,7.343Zm18.981,14.824q-2.242,5.791-4.468,11.569l-3.054-16.721,11.432-13.289,2.8,1.189Q287.365,378.181,283.862,387.228ZM312.58,315.18c-.371.876-.757,1.8-1.15,2.733-.051.122-.1.245-.154.368-.389.93-.785,1.88-1.2,2.869l-.082.2c-.354.853-.717,1.733-1.086,2.63-.069.168-.134.323-.2.492-.082.2-.17.414-.253.617-.164.4-.331.808-.5,1.216l-.622,1.519c-.067.164-.136.335-.2.5q-.783,1.918-1.606,3.951c-.086.212-.171.42-.257.635-.271.669-.547,1.352-.824,2.039-.108.269-.217.537-.326.809q-.429,1.064-.867,2.155c-.082.2-.165.411-.247.615q-1.525,3.8-3.167,7.925c-.036.091-.072.18-.108.272-.354.889-.712,1.793-1.074,2.7q-.1.255-.2.511-.561,1.413-1.133,2.861l-.021.053c-.412,1.042-.826,2.09-1.248,3.16l-7.377-3.134-.077-.033-17.662-7.5L313.18,313.77Q312.883,314.46,312.58,315.18Zm18.234-22.97h0a.138.138,0,0,1-.019-.006,20.491,20.491,0,0,0-13.157.5,19.822,19.822,0,0,1-5.118-12.861V258a52.849,52.849,0,0,1,44.232,42.029ZM389,398.375a23.8,23.8,0,1,1-23.8-23.8A23.827,23.827,0,0,1,389,398.375Z" fill="#de7f7f"/>
    </g>
  </g>
</svg>
