<svg xmlns="http://www.w3.org/2000/svg" width="480.008" height="480.016" viewBox="0 0 480.008 480.016">
  <g id="partnership" transform="translate(-0.008)">
    <path id="Path_84" data-name="Path 84" d="M208.016,336.008h16v16h-16Zm0,0" fill="#de7f7f"/>
    <path id="Path_85" data-name="Path 85" d="M480.016,392.008a24.007,24.007,0,0,0-17.762-23.074,23.777,23.777,0,0,0-9.441-29.16,23.717,23.717,0,0,0,3.2-11.766,24,24,0,0,0-24-24H347.789a160.381,160.381,0,0,0-69.6,16H256.016v-8a8,8,0,0,0-8-8h-56v16h48v112h-48v16h56a8,8,0,0,0,8-8v-8h11.2a16,16,0,0,1,13.313,7.129L295.1,461a42.686,42.686,0,0,0,73.7-4.586l4.16-8.406h67.059a23.92,23.92,0,0,0,22.238-32.93A24,24,0,0,0,480.016,392.008Zm-24,8h-88v16h72a8,8,0,0,1,0,16h-104v16H355.07l-.625,1.246a26.688,26.688,0,0,1-46.07,2.875L293.8,430.254a31.942,31.942,0,0,0-26.582-14.246h-11.2v-80h24a8.036,8.036,0,0,0,3.574-.8,144.263,144.263,0,0,1,64.2-15.2h84.227a8,8,0,0,1,0,16h-64v16h72a8,8,0,0,1,0,16h-56v16h72a8,8,0,0,1,0,16Zm0,0" fill="#de7f7f"/>
    <path id="Path_86" data-name="Path 86" d="M456.422,111.262l-8.406-4.2V40.008a23.926,23.926,0,0,0-32.93-22.242,23.865,23.865,0,0,0-46.145,0,23.78,23.78,0,0,0-29.16,9.441,23.724,23.724,0,0,0-11.766-3.2,24,24,0,0,0-24,24V132.23a160.287,160.287,0,0,0,16,69.6v22.176h-8a8,8,0,0,0-8,8v56h16v-48h112v48h16v-56a8,8,0,0,0-8-8h-8v-11.16a16,16,0,0,1,7.125-13.312l21.867-14.574a42.693,42.693,0,0,0-4.586-73.7Zm-4.289,60.387-21.871,14.574a31.936,31.936,0,0,0-14.246,26.625v11.16h-80v-24a8.052,8.052,0,0,0-.8-3.578,144.2,144.2,0,0,1-15.2-64.2V48.008a8,8,0,0,1,16,0v64h16v-72a8,8,0,0,1,16,0v56h16v-72a8,8,0,0,1,16,0v88h16v-72a8,8,0,0,1,16,0v104h16V124.949l1.246.625a26.69,26.69,0,0,1,2.871,46.074Zm0,0" fill="#de7f7f"/>
    <path id="Path_87" data-name="Path 87" d="M336.016,256.008h16v16h-16Zm0,0" fill="#de7f7f"/>
    <path id="Path_88" data-name="Path 88" d="M23.605,368.75l8.41,4.2v67.059a23.918,23.918,0,0,0,32.926,22.238,23.863,23.863,0,0,0,46.145,0,23.774,23.774,0,0,0,29.16-9.437,23.84,23.84,0,0,0,35.77-20.8V347.781a160.394,160.394,0,0,0-16-69.6V256.008h8a8,8,0,0,0,8-8v-56h-16v48h-112v-48h-16v56a8,8,0,0,0,8,8h8v11.2a16.007,16.007,0,0,1-7.129,13.313L19.023,295.055a42.688,42.688,0,0,0,4.582,73.7Zm4.289-60.383,21.871-14.578a31.936,31.936,0,0,0,14.25-26.582v-11.2h80v24a7.946,7.946,0,0,0,.84,3.574,144.3,144.3,0,0,1,15.16,64.2v84.227a8,8,0,0,1-16,0v-64h-16v72a8,8,0,0,1-16,0v-56h-16v72a8,8,0,0,1-16,0v-88h-16v72a8,8,0,0,1-16,0v-104h-16v19.055l-1.25-.656a26.686,26.686,0,0,1-2.871-46.07Zm0,0" fill="#de7f7f"/>
    <path id="Path_89" data-name="Path 89" d="M128.016,208.008h16v16h-16Zm0,0" fill="#de7f7f"/>
    <path id="Path_90" data-name="Path 90" d="M256.016,128.008h16v16h-16Zm0,0" fill="#de7f7f"/>
    <path id="Path_91" data-name="Path 91" d="M17.773,111.078a23.776,23.776,0,0,0,9.441,29.16,23.728,23.728,0,0,0-3.2,11.77,24,24,0,0,0,24,24h84.223a160.4,160.4,0,0,0,69.6-16h22.176v8a8,8,0,0,0,8,8h56v-16h-48v-112h48v-16h-56a8,8,0,0,0-8,8v8h-11.16a15.993,15.993,0,0,1-13.312-7.129L184.965,19.016a42.688,42.688,0,0,0-73.7,4.582l-4.2,8.41H40.016A23.918,23.918,0,0,0,17.773,64.934a23.865,23.865,0,0,0,0,46.145Zm6.242-31.07h88v-16h-72a8,8,0,0,1,0-16h104v-16H124.957l.625-1.25a26.686,26.686,0,0,1,46.07-2.871L186.23,49.758a31.944,31.944,0,0,0,26.625,14.25h11.16v80h-24a7.95,7.95,0,0,0-3.578.84,144.236,144.236,0,0,1-64.2,15.16H48.016a8,8,0,0,1,0-16h64v-16h-72a8,8,0,0,1,0-16h56v-16h-72a8,8,0,0,1,0-16Zm0,0" fill="#de7f7f"/>
  </g>
</svg>
